<?xml version="1.0" standalone="no"?>
<!DOCTYPE svg PUBLIC "-//W3C//DTD SVG 20010904//EN"
 "http://www.w3.org/TR/2001/REC-SVG-20010904/DTD/svg10.dtd">
<svg version="1.0" xmlns="http://www.w3.org/2000/svg"
 width="120.000000pt" height="120.000000pt" viewBox="0 0 120.000000 120.000000"
 preserveAspectRatio="xMidYMid meet">
<metadata>
Created by potrace 1.11, written by Peter Selinger 2001-2013
</metadata>
<g transform="translate(0.000000,120.000000) scale(0.100000,-0.100000)"
fill="#000000" stroke="none">
<path d="M705 1173 c-8 -8 -15 -24 -15 -35 0 -16 -3 -18 -13 -9 -8 6 -17 8
-20 4 -4 -3 -7 -1 -7 5 0 13 -99 9 -109 -5 -3 -5 -13 -8 -21 -8 -8 0 -22 -6
-30 -14 -10 -9 -15 -10 -18 -2 -2 6 -9 8 -15 4 -7 -4 -26 -8 -45 -9 -36 -2
-71 -33 -91 -81 -12 -29 -56 -63 -83 -63 -32 0 -58 -88 -35 -117 5 -7 6 -13 1
-13 -5 0 -17 14 -26 30 -9 17 -22 30 -27 30 -16 0 -24 -46 -11 -69 6 -12 7
-21 3 -21 -4 0 -1 -4 7 -10 9 -5 19 -5 27 2 9 7 13 7 13 -2 0 -6 -9 -19 -21
-29 -26 -21 -32 -78 -13 -108 8 -13 12 -23 8 -23 -4 0 -1 -7 6 -15 7 -8 9 -15
4 -15 -5 0 -3 -4 5 -9 8 -6 14 -29 15 -62 1 -44 6 -60 28 -84 24 -26 27 -36
23 -76 -3 -35 0 -50 11 -60 13 -10 17 -10 25 2 12 19 11 46 -1 54 -6 4 -8 11
-4 16 10 17 34 -11 30 -35 -3 -11 -5 -23 -6 -26 -1 -3 -1 -23 0 -45 2 -39 12
-55 38 -55 18 0 32 42 20 58 -10 12 -3 17 17 12 6 -2 33 -4 61 -5 99 -5 124
-22 117 -82 -3 -26 0 -44 7 -48 16 -10 30 13 30 48 0 19 4 27 13 24 8 -3 11
-25 9 -75 -2 -44 1 -73 8 -77 8 -5 8 -11 -1 -21 -9 -11 -9 -17 1 -28 22 -28
36 -8 33 47 -12 176 5 209 107 213 25 1 53 2 62 3 10 1 27 18 38 38 15 29 19
32 14 12 -8 -38 18 -56 44 -29 10 11 25 32 32 45 12 22 11 28 -2 41 -14 15
-18 14 -44 -2 l-29 -17 29 26 c16 15 35 27 42 27 13 0 58 53 60 71 1 5 2 25 3
44 1 21 9 42 20 52 11 9 18 20 15 24 -3 5 1 21 9 36 17 36 12 61 -21 95 -21
23 -26 38 -26 88 -1 33 -4 60 -8 60 -5 0 -8 7 -8 15 0 8 -22 29 -49 47 -31 21
-54 45 -62 66 -16 39 -62 82 -90 82 -15 0 -17 5 -13 29 5 21 1 30 -13 36 -32
14 -43 14 -58 -2z"/>
<path d="M1023 855 c-18 -20 -2 -57 44 -100 36 -34 38 -35 47 -16 6 15 1 35
-19 76 -29 56 -49 67 -72 40z"/>
</g>
</svg>
